<?xml version="1.0" encoding="UTF-8" standalone="no"?>
<svg
   xmlns:dc="http://purl.org/dc/elements/1.1/"
   xmlns:cc="http://creativecommons.org/ns#"
   xmlns:rdf="http://www.w3.org/1999/02/22-rdf-syntax-ns#"
   xmlns:svg="http://www.w3.org/2000/svg"
   xmlns="http://www.w3.org/2000/svg"
   xmlns:sodipodi="http://sodipodi.sourceforge.net/DTD/sodipodi-0.dtd"
   xmlns:inkscape="http://www.inkscape.org/namespaces/inkscape"
   width="210mm"
   height="297mm"
   viewBox="0 0 210 297"
   version="1.1"
   id="svg1156"
   inkscape:version="1.0.2-2 (e86c870879, 2021-01-15)"
   sodipodi:docname="male-hair-silhouette-adj.svg">
  <defs
     id="defs1150" />
  <sodipodi:namedview
     id="base"
     pagecolor="#ffffff"
     bordercolor="#666666"
     borderopacity="1.0"
     inkscape:pageopacity="0.0"
     inkscape:pageshadow="2"
     inkscape:zoom="0.35"
     inkscape:cx="181.6673"
     inkscape:cy="560"
     inkscape:document-units="mm"
     inkscape:current-layer="layer1"
     inkscape:document-rotation="0"
     showgrid="false"
     inkscape:window-width="1544"
     inkscape:window-height="1020"
     inkscape:window-x="96"
     inkscape:window-y="0"
     inkscape:window-maximized="0" />
  <metadata
     id="metadata1153">
    <rdf:RDF>
      <cc:Work
         rdf:about="">
        <dc:format>image/svg+xml</dc:format>
        <dc:type
           rdf:resource="http://purl.org/dc/dcmitype/StillImage" />
        <dc:title></dc:title>
      </cc:Work>
    </rdf:RDF>
  </metadata>
  <g
     inkscape:label="Laag 1"
     inkscape:groupmode="layer"
     id="layer1">
    <g
       id="g1071"
       style="fill:#000000;fill-opacity:1"
       transform="matrix(0.35277777,0,0,-0.35277777,-8.1977148,274.85041)">
      <path
         inkscape:connector-curvature="0"
         id="path925"
         style="fill:#000000;fill-opacity:1;fill-rule:evenodd;stroke:none"
         d="m 511.837,206.785 c -11.38,5.403 -26.453,2.926 -42.929,-2.555 -13.539,-4.503 -27.822,-0.005 -36.325,11.461 -0.655,0.877 -1.309,1.76 -1.963,2.641 41.381,9.252 93.321,28.152 81.217,-11.547 M 189.979,322.512 c -19.185,13.292 -25.377,40.996 17.521,39.099 -9.483,-6.923 -8.656,-17.917 3.463,-35.437 -18.753,12.565 -24.099,5.755 -20.984,-3.662 m 48.136,-11.324 c 0.497,-29.708 -12.648,-60.717 -52.122,-20.563 24.169,-7.441 40.012,-2.969 52.122,20.563 m -36.478,63.726 c -17.648,16.724 -36.254,-0.579 -36.635,-27.497 -13.261,35.012 26.873,55.063 36.635,27.497 m 259.136,23.215 c -8.468,-4.042 -16.932,-8.078 -25.395,-12.115 l -7.177,-12.895 -68.093,9.568 c 36.463,22.324 67.115,10.295 100.665,15.442 m 12.06,24.048 -5.203,-10.502 -21.491,4.782 c -14.992,3.337 -28.385,3.631 -43.512,0.968 l -47.452,-8.373 36.538,13.405 c 21.482,7.885 41.969,9.082 64.223,3.756 z m 45.443,-86.1 c -26.223,44.521 -26.14,73.402 0.676,72.174 -2.704,-6.135 -4.362,-12.738 -5.215,-19.722 5.001,-2.225 11.431,-2.089 18.943,-0.192 -7.786,-4.103 -14.357,-6.151 -19.464,-5.695 -0.811,-14.382 1.445,-30.164 5.06,-46.565 M 376.003,20.92 c 28.389,-2.426 56.732,-2.918 84.522,1.572 26.6,11.401 50.637,33.793 72.899,63.795 -9.544,-19.762 -20.716,-37.73 -34.854,-52.394 57.899,29.656 85.273,111.302 27.694,172.517 -3.519,26.072 19.585,49.779 -10.534,78.199 -0.279,0.315 -0.562,0.629 -0.846,0.938 -9.818,10.877 -30.336,11.279 -43.506,4.717 -14.581,-7.264 -26.036,-6.1 -31.488,11.867 2.931,-40.971 41.656,-8.459 54.7,-26.969 -20.114,2.656 -24.273,-19.646 -45.718,-11.949 -22.928,-1.451 -29.784,-19.139 -36.062,-37.76 -3.601,-10.67 -11.258,-18.307 -21.933,-21.887 -10.675,-3.566 -21.391,-2.074 -30.682,4.28 -73.71,50.392 -98.174,147.213 -56.772,226.756 10.877,20.903 21.334,41.838 26.918,63.082 3.499,13.331 1.612,26.101 -5.598,37.851 -7.212,11.75 -17.74,19.21 -31.214,22.126 -22.907,4.955 -54.887,9.701 -96.739,14.22 174.506,12.13 223.216,-83.773 291.495,-89.701 18.526,-33.054 24.753,-44.17 43.283,-77.225 -9.148,26.807 -18.3,53.609 -27.45,80.41 C 622.272,664.543 139.307,709.061 148.181,570.527 75.13,506.051 118.652,366.561 176.879,217.613 194.822,123.398 174.015,54.592 122.074,6.207 c 79.214,59.102 76.982,131.818 69.203,212.471 9.869,58.138 -92.135,198.814 15.203,173.336 32.929,-7.815 69.224,-64.588 49.014,-134.834 -16.426,-57.094 -5.076,-124.043 21.68,-172.266 6.222,-11.209 13.712,-21.092 22.299,-29.551 -9.185,19.869 -14.626,41.778 -18.045,64.776 11.203,-34.278 25.504,-63.092 44.136,-84.248 15.041,-8.293 32.03,-13.399 50.439,-14.971" />
    </g>
  </g>
</svg>
